<svg width="680" height="760" viewBox="0 0 680 760" fill="none" xmlns="http://www.w3.org/2000/svg">
  <rect width="680" height="760" rx="36" fill="#EDE7DC"/>
  <rect x="38" y="38" width="604" height="684" rx="28" fill="#F8F4ED"/>
  <circle cx="340" cy="250" r="112" fill="#D9CBB7"/>
  <path d="M257 262C257 210.086 299.086 168 351 168H353C404.914 168 447 210.086 447 262V321C447 372.914 404.914 415 353 415H351C299.086 415 257 372.914 257 321V262Z" fill="#201D1B"/>
  <path d="M273 287C273 229.562 319.562 183 377 183V183C434.438 183 481 229.562 481 287V364C481 421.438 434.438 468 377 468V468C319.562 468 273 421.438 273 364V287Z" fill="#2F2924"/>
  <path d="M232 640C232 553.396 302.196 483.2 388.8 483.2H391.2C477.804 483.2 548 553.396 548 640V665H232V640Z" fill="#131A25"/>
  <path d="M171 639C171 571.621 225.621 517 293 517H406C473.379 517 528 571.621 528 639V665H171V639Z" fill="#243248"/>
  <path d="M243 302C243 235.174 297.174 181 364 181V181C430.826 181 485 235.174 485 302V329C485 395.826 430.826 450 364 450V450C297.174 450 243 395.826 243 329V302Z" fill="#B98567"/>
  <path d="M267 242C274.216 197.545 312.78 165 357.816 165H372.184C417.22 165 455.784 197.545 463 242V259H267V242Z" fill="#1E1A18"/>
  <path d="M314 307C314 296.507 322.507 288 333 288H396C406.493 288 415 296.507 415 307V308C415 318.493 406.493 327 396 327H333C322.507 327 314 318.493 314 308V307Z" fill="#A86C51"/>
  <path d="M286 221C293.713 184.747 325.792 159 362.856 159H369.144C406.208 159 438.287 184.747 446 221V242H286V221Z" fill="#1B1614"/>
  <circle cx="319" cy="300" r="11" fill="#201B18"/>
  <circle cx="409" cy="300" r="11" fill="#201B18"/>
  <path d="M334 357C351.528 368.841 377.472 368.841 395 357" stroke="#7E4E3A" stroke-width="8" stroke-linecap="round"/>
  <path d="M115 640H575" stroke="#D5C8B6" stroke-width="14" stroke-linecap="round"/>
</svg>
